#!OML:ASF F:\VICON\USERDATA\INSTALL\rory3\rory3.ASF
:FULLY-SPECIFIED
:DEGREES
860
root -0.304109 17.5389 -8.90078 -1.26072 -2.42564 -1.87871
lowerback 7.90776 1.17528 -3.41098
upperback 3.74428 1.3476 2.15027
thorax -0.684651 0.620609 4.03017
lowerneck -21.8878 -4.03483 -9.65117
upperneck 17.6696 -5.38709 12.8296
head 9.85826 -1.71102 5.35304
rclavicle -2.3233e-014 -3.57812e-015
rhumerus -17.0012 2.25236 -69.0551
rradius 64.8017
rwrist 0.0681395
rhand -25.7571 -0.547205
rfingers 7.12502
rthumb 0.780386 -30.5255
lclavicle -2.3233e-014 -3.57812e-015
lhumerus -36.8929 14.9566 69.4674
lradius 25.2487
lwrist -3.77769
lhand -9.40846 31.9314
lfingers 7.12502
lthumb 16.5532 61.2454
rfemur -6.92202 -7.06362 23.7532
rtibia 34.4204
rfoot -22.2021 2.20664
rtoes 6.15987
lfemur -25.5978 -3.02002 -10.2165
ltibia 44.2077
lfoot -5.53452 3.52816
ltoes -8.97804
861
root -0.315696 17.5327 -8.89215 -1.3661 -2.80308 -1.84848
lowerback 8.13819 1.14296 -3.36522
upperback 3.74832 1.30172 2.2046
thorax -0.803534 0.599875 4.06177
lowerneck -22.084 -4.01671 -9.37257
upperneck 17.6252 -5.45436 12.9136
head 9.88326 -1.70719 5.32516
rclavicle -5.56597e-015 -1.35174e-014
rhumerus -16.7168 1.15171 -67.0436
rradius 64.8383
rwrist 0.239538
rhand -26.0995 -0.365016
rfingers 7.12502
rthumb 0.449677 -30.3443
lclavicle -5.56597e-015 -1.35174e-014
lhumerus -37.8741 15.6795 68.1991
lradius 25.2006
lwrist -3.30395
lhand -8.87705 31.9711
lfingers 7.12502
lthumb 17.0648 61.2417
rfemur -6.83743 -6.87955 23.7403
rtibia 34.5627
rfoot -22.1851 2.34723
rtoes 6.02725
lfemur -25.6163 -2.79448 -10.4334
ltibia 44.1994
lfoot -5.51747 2.71349
ltoes -9.42727
862
root -0.326119 17.5345 -8.87719 -1.37402 -3.17626 -1.66747
lowerback 8.16072 1.12481 -3.39841
upperback 3.7473 1.27385 2.18894
thorax -0.814619 0.585761 4.06651
lowerneck -22.1668 -4.01444 -9.17517
upperneck 17.501 -5.53412 13.064
head 9.86597 -1.71229 5.33064
rclavicle -2.48481e-015 0
rhumerus -16.4372 0.0678352 -64.9349
rradius 64.8723
rwrist 0.431732
rhand -26.3569 0.349658
rfingers 7.12502
rthumb 0.201031 -29.63
lclavicle -2.48481e-015 0
lhumerus -38.716 16.4852 66.7218
lradius 25.0615
lwrist -3.00359
lhand -8.69534 31.6614
lfingers 7.12502
lthumb 17.2397 60.9167
rfemur -6.8608 -6.78719 23.5645
rtibia 34.6917
rfoot -22.1876 2.46929
rtoes 5.42184
lfemur -25.7243 -2.57932 -10.8252
ltibia 44.1201
lfoot -5.5674 2.09182
ltoes -9.86586
863
root -0.337171 17.5348 -8.86399 -1.26619 -3.48204 -1.53391
lowerback 8.06676 1.11325 -3.37258
upperback 3.72659 1.26216 2.15535
thorax -0.782043 0.579973 4.01893
lowerneck -22.1749 -4.04202 -9.1109
upperneck 17.3243 -5.6668 13.4494
head 9.83701 -1.72868 5.43552
rclavicle -1.49089e-016 -1.72943e-014
rhumerus -16.2055 -1.0439 -62.7467
rradius 65.0161
rwrist 0.54981
rhand -26.4891 0.999073
rfingers 7.12502
rthumb 0.0733743 -28.9807
lclavicle -1.49089e-016 -1.72943e-014
lhumerus -39.3305 17.3884 65.0116
lradius 24.832
lwrist -3.19976
lhand -8.63023 31.1859
lfingers 7.12502
lthumb 17.3024 60.4357
rfemur -6.99307 -6.71388 23.465
rtibia 34.7568
rfoot -22.1577 2.57945
rtoes 5.32484
lfemur -25.9889 -2.45451 -11.1591
ltibia 43.9822
lfoot -5.65568 1.59175
ltoes -10.3538
864
root -0.346264 17.5345 -8.8503 -1.12783 -3.72775 -1.44938
lowerback 7.9704 1.09104 -3.28764
upperback 3.69935 1.24125 2.16323
thorax -0.753865 0.57012 3.98184
lowerneck -22.2486 -4.12597 -9.08746
upperneck 17.2035 -5.83288 13.6973
head 9.84004 -1.77582 5.49347
rclavicle -8.00108e-015 5.56597e-015
rhumerus -15.9211 -2.1332 -60.4699
rradius 65.2652
rwrist 0.322605
rhand -26.6731 1.18047
rfingers 7.12502
rthumb -0.104394 -28.7993
lclavicle -8.00108e-015 5.56597e-015
lhumerus -39.8667 18.3329 63.2364
lradius 24.8514
lwrist -3.47924
lhand -8.70231 31.0292
lfingers 7.12502
lthumb 17.233 60.285
rfemur -7.12122 -6.6317 23.4097
rtibia 34.7622
rfoot -22.1237 2.77059
rtoes 5.93094
lfemur -26.3125 -2.33872 -11.4612
ltibia 43.7971
lfoot -5.86403 1.14947
ltoes -11.4244
865
root -0.354932 17.5323 -8.83085 -1.07525 -3.97455 -1.35422
lowerback 7.94569 1.09204 -3.21774
upperback 3.64681 1.2483 2.18149
thorax -0.794505 0.575875 3.96045
lowerneck -22.2139 -4.22626 -9.07932
upperneck 17.1164 -6.01964 13.9092
head 9.83735 -1.84105 5.53802
rclavicle 9.79014e-015 3.77691e-015
rhumerus -15.7503 -3.07342 -58.0893
rradius 65.6858
rwrist -0.363225
rhand -27.115 1.0886
rfingers 7.12502
rthumb -0.531204 -28.8905
lclavicle 9.79014e-015 3.77691e-015
lhumerus -40.4796 19.2366 61.3359
lradius 25.1654
lwrist -3.6108
lhand -8.84939 31.0677
lfingers 7.12502
lthumb 17.0914 60.3359
rfemur -7.11119 -6.56217 23.3521
rtibia 34.702
rfoot -22.0927 2.6865
rtoes 5.10569
lfemur -26.4914 -2.25075 -11.7815
ltibia 43.5619
lfoot -6.04705 0.954145
ltoes -12.9116
866
root -0.367332 17.533 -8.81265 -1.06531 -4.28446 -1.30665
lowerback 7.99383 1.17043 -3.16091
upperback 3.60802 1.35542 2.20166
thorax -0.870572 0.631947 3.93861
lowerneck -22.2144 -4.34744 -9.05097
upperneck 17.0667 -6.25968 14.1875
head 9.86453 -1.92037 5.59673
rclavicle 6.26172e-015 2.78299e-015
rhumerus -15.6099 -4.01003 -55.5957
rradius 66.1429
rwrist -1.02606
rhand -27.5496 0.932125
rfingers 7.12502
rthumb -0.950929 -29.0455
lclavicle 6.26172e-015 2.78299e-015
lhumerus -40.9294 19.9439 59.3978
lradius 25.6898
lwrist -3.33407
lhand -9.01847 31.3371
lfingers 7.12502
lthumb 16.9287 60.6193
rfemur -7.03339 -6.36589 23.3787
rtibia 34.5986
rfoot -22.0974 2.50207
rtoes 4.23096
lfemur -26.5829 -2.13614 -12.0159
ltibia 43.2775
lfoot -6.12139 1.00966
ltoes -13.7835
867
root -0.381959 17.5404 -8.79644 -0.992402 -4.52013 -1.30574
lowerback 8.03579 1.20563 -3.06113
upperback 3.59429 1.40886 2.24665
thorax -0.911925 0.66022 3.9233
lowerneck -22.5077 -4.52495 -9.19308
upperneck 17.1602 -6.53768 14.5462
head 10.0108 -2.00628 5.71516
rclavicle -7.60351e-015 7.95139e-015
rhumerus -15.2288 -4.92449 -53.0694
rradius 66.5409
rwrist -1.56089
rhand -27.7057 0.683195
rfingers 7.12502
rthumb -1.10167 -29.2937
lclavicle -7.60351e-015 7.95139e-015
lhumerus -41.2019 20.7873 57.3686
lradius 26.3686
lwrist -2.81611
lhand -9.25851 31.4874
lfingers 7.12502
lthumb 16.6976 60.7892
rfemur -6.99772 -6.09542 23.4606
rtibia 34.4723
rfoot -22.094 2.50743
rtoes 4.52385
lfemur -26.7595 -2.14421 -12.1714
ltibia 42.9381
lfoot -6.19527 1.2082
ltoes -13.9751
868
root -0.395575 17.544 -8.78084 -0.925073 -4.64564 -1.25383
lowerback 8.1135 1.21532 -2.95917
upperback 3.55617 1.42765 2.26541
thorax -0.994369 0.672506 3.88174
lowerneck -22.7114 -4.69859 -9.32
upperneck 17.2053 -6.79198 14.8024
head 10.1168 -2.09525 5.79439
rclavicle 2.48481e-015 7.15625e-015
rhumerus -14.7449 -5.87488 -50.5542
rradius 66.8186
rwrist -1.99568
rhand -27.8382 0.56692
rfingers 7.12502
rthumb -1.22965 -29.4093
lclavicle 2.48481e-015 7.15625e-015
lhumerus -41.378 21.8844 55.0482
lradius 26.9132
lwrist -2.34714
lhand -9.6288 31.1679
lfingers 7.12502
lthumb 16.3411 60.4994
rfemur -6.971 -5.88835 23.4797
rtibia 34.3562
rfoot -22.0844 2.49206
rtoes 4.99784
lfemur -26.9469 -2.14957 -12.4154
ltibia 42.5328
lfoot -6.33485 1.39002
ltoes -14.3697
869
root -0.406698 17.5406 -8.75852 -0.910528 -4.77093 -1.18326
lowerback 8.12486 1.2666 -2.8708
upperback 3.48588 1.5031 2.30865
thorax -1.07932 0.713439 3.86874
lowerneck -22.5032 -4.85569 -9.4739
upperneck 17.0619 -7.00866 15.0092
head 10.0749 -2.19405 5.85713
rclavicle -6.11263e-015 1.70955e-014
rhumerus -14.3755 -6.80002 -47.8927
rradius 67.0728
rwrist -2.4067
rhand -28.0307 0.327022
rfingers 7.12502
rthumb -1.41553 -29.648
lclavicle -6.11263e-015 1.70955e-014
lhumerus -41.5288 22.7221 52.7597
lradius 27.4218
lwrist -1.27319
lhand -10.4538 30.5818
lfingers 7.12502
lthumb 15.5466 59.9768
rfemur -6.86732 -5.73035 23.4502
rtibia 34.2667
rfoot -22.1016 2.45633
rtoes 5.18172
lfemur -27.0436 -2.09155 -12.6964
ltibia 42.0369
lfoot -6.33755 1.58115
ltoes -14.4625
870
root -0.417687 17.5432 -8.72738 -0.888019 -4.82065 -1.08402
lowerback 7.99179 1.29075 -2.77734
upperback 3.45619 1.54542 2.33204
thorax -1.03884 0.735005 3.83808
lowerneck -22.3466 -4.99116 -9.65072
upperneck 16.9145 -7.19067 15.2479
head 10.0395 -2.27333 5.94177
rclavicle -1.18774e-014 -4.77083e-015
rhumerus -13.9968 -7.66635 -45.1532
rradius 67.3097
rwrist -2.7049
rhand -28.0215 0.291694
rfingers 7.12502
rthumb -1.40668 -29.6834
lclavicle -1.18774e-014 -4.77083e-015
lhumerus -41.4301 23.0649 50.7684
lradius 28.0609
lwrist 0.999077
lhand -12.4785 29.9484
lfingers 7.12502
lthumb 13.5958 59.4844
rfemur -6.72418 -5.71559 23.3581
rtibia 34.1903
rfoot -22.1561 2.52604
rtoes 5.4781
lfemur -27.1231 -2.14654 -13.0194
ltibia 41.4547
lfoot -6.25312 1.9093
ltoes -14.8062
